<?xml version="1.0" encoding="UTF-8" standalone="no" ?>
<!DOCTYPE svg PUBLIC "-//W3C//DTD SVG 1.1//EN" "http://www.w3.org/Graphics/SVG/1.1/DTD/svg11.dtd">
<svg xmlns="http://www.w3.org/2000/svg" xmlns:xlink="http://www.w3.org/1999/xlink" version="1.1" width="1280" height="1024" viewBox="0 0 1280 1024" xml:space="preserve">
<desc>Created with Fabric.js 3.6.3</desc>
<defs>
</defs>
<g transform="matrix(1.9692780337941629 0 0 1.9692780337941629 640.0153846153846 512.012312418764)" id="background-logo"  >
<rect style="stroke: none; stroke-width: 1; stroke-dasharray: none; stroke-linecap: butt; stroke-dashoffset: 0; stroke-linejoin: miter; stroke-miterlimit: 10; fill: rgb(0,0,0); fill-rule: nonzero; opacity: 1;"  paint-order="stroke"  x="-325" y="-260" rx="0" ry="0" width="650" height="520" />
</g>
<g transform="matrix(1.9692780337941629 0 0 1.9692780337941629 804.6131281821372 474.80160238481704)" id="text-logo-path"  >
<path style="stroke: none; stroke-width: 1; stroke-dasharray: none; stroke-linecap: butt; stroke-dashoffset: 0; stroke-linejoin: miter; stroke-miterlimit: 10; fill: rgb(255,255,255); fill-rule: nonzero; opacity: 1;"  paint-order="stroke"  transform=" translate(-175.83, 22.76)" d="M 1.87 -10.92 L 1.87 -10.92 L 1.87 -13.52 L 6.63 -13.52 L 6.63 -10.66 Q 6.63 -4.16 11.97 -4.16 Q 17.3 -4.16 17.3 -10.66 L 17.3 -10.66 Q 17.3 -12.7 16.46 -14.47 Q 15.62 -16.25 14.28 -17.61 Q 12.95 -18.98 11.31 -20.3 Q 9.68 -21.61 8.06 -23.03 Q 6.44 -24.44 5.11 -26.01 Q 3.78 -27.58 2.94 -29.79 Q 2.09 -31.99 2.09 -34.59 L 2.09 -34.59 Q 2.09 -39.99 4.62 -42.97 Q 7.14 -45.96 12.16 -45.96 L 12.16 -45.96 Q 17.2 -45.96 19.74 -42.94 Q 22.28 -39.93 22.28 -34.59 L 22.28 -34.59 L 22.28 -33.36 L 17.49 -33.36 L 17.49 -34.85 Q 17.49 -41.35 12.28 -41.35 Q 7.08 -41.35 7.08 -34.91 L 7.08 -34.91 Q 7.08 -32.85 7.92 -31.06 Q 8.76 -29.26 10.11 -27.9 Q 11.46 -26.53 13.09 -25.22 Q 14.73 -23.9 16.36 -22.49 Q 18 -21.07 19.34 -19.5 Q 20.69 -17.93 21.53 -15.73 Q 22.38 -13.52 22.38 -10.92 L 22.38 -10.92 Q 22.38 -5.62 19.77 -2.59 Q 17.17 0.44 12.09 0.44 Q 7.01 0.44 4.44 -2.57 Q 1.87 -5.59 1.87 -10.92 Z M 30.12 0 L 25.45 0 L 34.15 -45.51 L 41.51 -45.51 L 50.21 0 L 45.16 0 L 43.39 -9.17 L 31.9 -9.17 L 30.12 0 Z M 37.55 -39.77 L 32.53 -13.52 L 42.69 -13.52 L 37.55 -39.77 Z M 58.53 0 L 54.11 0 L 54.11 -45.51 L 61.19 -45.51 L 68.68 -9.17 L 75.89 -45.51 L 82.96 -45.51 L 82.96 0 L 78.17 0 L 78.17 -36.59 L 70.94 -0.06 L 66.08 -0.06 L 58.53 -36.28 L 58.53 0 Z M 93.25 0 L 88.17 0 L 88.17 -45.51 L 98.1 -45.51 Q 103.31 -45.51 105.82 -42.61 Q 108.32 -39.7 108.32 -34.37 L 108.32 -34.37 L 108.32 -28.91 Q 108.32 -17.93 97.72 -17.93 L 97.72 -17.93 L 93.25 -17.93 L 93.25 0 Z M 93.25 -40.88 L 93.25 -22.5 L 97.72 -22.5 Q 100.61 -22.5 101.96 -23.95 Q 103.31 -25.39 103.31 -28.6 L 103.31 -28.6 L 103.31 -34.66 Q 103.31 -37.83 102.07 -39.36 Q 100.83 -40.88 98.1 -40.88 L 98.1 -40.88 L 93.25 -40.88 Z M 130.32 0 L 112.26 0 L 112.26 -45.51 L 117.34 -45.51 L 117.34 -4.6 L 130.32 -4.6 L 130.32 0 Z M 152.88 0 L 134.16 0 L 134.16 -45.51 L 152.88 -45.51 L 152.88 -40.88 L 139.24 -40.88 L 139.24 -25.36 L 150.34 -25.36 L 150.34 -20.79 L 139.24 -20.79 L 139.24 -4.6 L 152.88 -4.6 L 152.88 0 Z M 156.82 -10.92 L 156.82 -10.92 L 156.82 -13.52 L 161.58 -13.52 L 161.58 -10.66 Q 161.58 -4.16 166.91 -4.16 Q 172.24 -4.16 172.24 -10.66 L 172.24 -10.66 Q 172.24 -12.7 171.4 -14.47 Q 170.56 -16.25 169.23 -17.61 Q 167.9 -18.98 166.26 -20.3 Q 164.63 -21.61 163.01 -23.03 Q 161.39 -24.44 160.06 -26.01 Q 158.72 -27.58 157.88 -29.79 Q 157.04 -31.99 157.04 -34.59 L 157.04 -34.59 Q 157.04 -39.99 159.56 -42.97 Q 162.09 -45.96 167.1 -45.96 L 167.1 -45.96 Q 172.15 -45.96 174.69 -42.94 Q 177.23 -39.93 177.23 -34.59 L 177.23 -34.59 L 177.23 -33.36 L 172.43 -33.36 L 172.43 -34.85 Q 172.43 -41.35 167.23 -41.35 Q 162.02 -41.35 162.02 -34.91 L 162.02 -34.91 Q 162.02 -32.85 162.86 -31.06 Q 163.71 -29.26 165.05 -27.9 Q 166.4 -26.53 168.04 -25.22 Q 169.67 -23.9 171.31 -22.49 Q 172.94 -21.07 174.29 -19.5 Q 175.64 -17.93 176.48 -15.73 Q 177.32 -13.52 177.32 -10.92 L 177.32 -10.92 Q 177.32 -5.62 174.72 -2.59 Q 172.12 0.44 167.04 0.44 Q 161.96 0.44 159.39 -2.57 Q 156.82 -5.59 156.82 -10.92 Z M 186.05 0 L 181.64 0 L 181.64 -45.51 L 188.72 -45.51 L 196.21 -9.17 L 203.41 -45.51 L 210.49 -45.51 L 210.49 0 L 205.7 0 L 205.7 -36.59 L 198.46 -0.06 L 193.6 -0.06 L 186.05 -36.28 L 186.05 0 Z M 219.06 0 L 214.39 0 L 223.09 -45.51 L 230.45 -45.51 L 239.15 0 L 234.1 0 L 232.32 -9.17 L 220.83 -9.17 L 219.06 0 Z M 226.48 -39.77 L 221.47 -13.52 L 231.63 -13.52 L 226.48 -39.77 Z M 242.67 -10.98 L 242.67 -10.98 L 242.67 -34.5 Q 242.67 -39.83 245.23 -42.89 Q 247.78 -45.96 252.86 -45.96 L 252.86 -45.96 Q 257.97 -45.96 260.56 -42.89 Q 263.14 -39.83 263.14 -34.5 L 263.14 -34.5 L 263.14 -30.41 L 258.32 -30.41 L 258.32 -34.79 Q 258.32 -41.35 252.99 -41.35 L 252.99 -41.35 Q 250.32 -41.35 248.99 -39.64 Q 247.65 -37.93 247.65 -34.79 L 247.65 -34.79 L 247.65 -10.73 Q 247.65 -7.59 248.99 -5.87 Q 250.32 -4.16 252.99 -4.16 L 252.99 -4.16 Q 258.32 -4.16 258.32 -10.73 L 258.32 -10.73 L 258.32 -16.63 L 263.14 -16.63 L 263.14 -10.98 Q 263.14 -5.65 260.56 -2.6 Q 257.97 0.44 252.86 0.44 L 252.86 0.44 Q 247.78 0.44 245.23 -2.6 Q 242.67 -5.65 242.67 -10.98 Z M 272.82 0 L 267.74 0 L 267.74 -45.51 L 272.82 -45.51 L 272.82 -25.01 L 283.99 -25.01 L 283.99 -45.51 L 289.07 -45.51 L 289.07 0 L 283.99 0 L 283.99 -20.47 L 272.82 -20.47 L 272.82 0 Z M 299.32 0 L 294.25 0 L 294.25 -45.51 L 299.32 -45.51 L 299.32 0 Z M 308.97 0 L 304.43 0 L 304.43 -45.51 L 310.88 -45.51 L 321.38 -12.6 L 321.38 -45.51 L 325.89 -45.51 L 325.89 0 L 320.62 0 L 308.97 -36.78 L 308.97 0 Z M 349.79 0 L 331.06 0 L 331.06 -45.51 L 349.79 -45.51 L 349.79 -40.88 L 336.14 -40.88 L 336.14 -25.36 L 347.25 -25.36 L 347.25 -20.79 L 336.14 -20.79 L 336.14 -4.6 L 349.79 -4.6 L 349.79 0 Z" stroke-linecap="round" />
</g>
<g transform="matrix(0.6810744188023291 0 0 0.6810744188023291 804.8400567055627 564.0349577571568)" id="tagline-fcda65a0-932b-48a1-a38a-4280a94a3314-logo-path"  >
<filter id="SVGID_823322" y="-190.590242238144%" height="481.180484476288%" x="-37.22920004824176%" width="174.4584000964835%" >
	<feGaussianBlur in="SourceAlpha" stdDeviation="0"></feGaussianBlur>
	<feOffset dx="-100" dy="100" result="oBlur" ></feOffset>
	<feFlood flood-color="rgb(0,0,0)" flood-opacity="1"/>
	<feComposite in2="oBlur" operator="in" />
	<feMerge>
		<feMergeNode></feMergeNode>
		<feMergeNode in="SourceGraphic"></feMergeNode>
	</feMerge>
</filter>
<path style="stroke: rgb(188,188,188); stroke-width: 0; stroke-dasharray: none; stroke-linecap: butt; stroke-dashoffset: 0; stroke-linejoin: miter; stroke-miterlimit: 4; fill: rgb(255,255,255); fill-rule: nonzero; opacity: 1;filter: url(#SVGID_823322);"  paint-order="stroke"  transform=" translate(-293.485, 28.669999999999998)" d="M 16.5 0 L 3.28 0 L 3.28 -57.42 L 16.14 -57.42 Q 22.7 -57.42 25.67 -54.27 Q 28.63 -51.13 28.63 -44.68 L 28.63 -44.68 L 28.63 -42 Q 28.63 -37.28 27.09 -34.49 Q 25.54 -31.71 21.9 -30.59 L 21.9 -30.59 Q 29.59 -28.43 29.59 -18.3 L 29.59 -18.3 L 29.59 -13.45 Q 29.59 -6.89 26.35 -3.44 Q 23.1 0 16.5 0 L 16.5 0 Z M 9.69 -27.23 L 9.69 -5.81 L 16.5 -5.81 Q 20.02 -5.81 21.66 -7.71 Q 23.3 -9.61 23.3 -13.61 L 23.3 -13.61 L 23.3 -18.7 Q 23.3 -23.38 21.4 -25.3 Q 19.5 -27.23 15.25 -27.23 L 15.25 -27.23 L 9.69 -27.23 Z M 9.69 -51.57 L 9.69 -33.03 L 14.61 -33.03 Q 18.62 -33.03 20.46 -34.69 Q 22.3 -36.36 22.3 -40.68 L 22.3 -40.68 L 22.3 -44.04 Q 22.3 -47.93 20.84 -49.75 Q 19.38 -51.57 15.98 -51.57 L 15.98 -51.57 L 9.69 -51.57 Z M 44.32 -20.58 L 32.19 -57.42 L 38.84 -57.42 L 47.77 -29.19 L 56.78 -57.42 L 62.86 -57.42 L 50.65 -20.58 L 50.65 0 L 44.32 0 L 44.32 -20.58 Z M 85.6 0 L 80.04 0 L 80.04 -57.42 L 88.97 -57.42 L 98.42 -11.57 L 107.5 -57.42 L 116.43 -57.42 L 116.43 0 L 110.39 0 L 110.39 -46.17 L 101.26 -0.08 L 95.13 -0.08 L 85.6 -45.76 L 85.6 0 Z M 122.76 -13.85 L 122.76 -13.85 L 122.76 -57.42 L 129.05 -57.42 L 129.05 -13.53 Q 129.05 -5.25 135.77 -5.25 L 135.77 -5.25 Q 142.42 -5.25 142.42 -13.53 L 142.42 -13.53 L 142.42 -57.42 L 148.42 -57.42 L 148.42 -13.85 Q 148.42 -7.09 145.2 -3.22 Q 141.98 0.64 135.53 0.64 L 135.53 0.64 Q 129.17 0.64 125.96 -3.22 Q 122.76 -7.09 122.76 -13.85 Z M 163 -51.57 L 152.43 -51.57 L 152.43 -57.42 L 179.9 -57.42 L 179.9 -51.57 L 169.29 -51.57 L 169.29 0 L 163 0 L 163 -51.57 Z M 183.98 -13.85 L 183.98 -13.85 L 183.98 -57.42 L 190.27 -57.42 L 190.27 -13.53 Q 190.27 -5.25 196.99 -5.25 L 196.99 -5.25 Q 203.64 -5.25 203.64 -13.53 L 203.64 -13.53 L 203.64 -57.42 L 209.64 -57.42 L 209.64 -13.85 Q 209.64 -7.09 206.42 -3.22 Q 203.2 0.64 196.75 0.64 L 196.75 0.64 Q 190.39 0.64 187.18 -3.22 Q 183.98 -7.09 183.98 -13.85 Z M 220.17 0 L 214.29 0 L 225.26 -57.42 L 234.55 -57.42 L 245.52 0 L 239.15 0 L 236.91 -11.57 L 222.42 -11.57 L 220.17 0 Z M 229.54 -50.17 L 223.22 -17.06 L 236.03 -17.06 L 229.54 -50.17 Z M 273.31 0 L 250.52 0 L 250.52 -57.42 L 256.93 -57.42 L 256.93 -5.81 L 273.31 -5.81 L 273.31 0 Z M 295.09 0 L 289.2 0 L 300.17 -57.42 L 309.46 -57.42 L 320.43 0 L 314.07 0 L 311.82 -11.57 L 297.33 -11.57 L 295.09 0 Z M 304.46 -50.17 L 298.13 -17.06 L 310.94 -17.06 L 304.46 -50.17 Z M 333.73 -51.57 L 323.16 -51.57 L 323.16 -57.42 L 350.62 -57.42 L 350.62 -51.57 L 340.01 -51.57 L 340.01 0 L 333.73 0 L 333.73 -51.57 Z M 363.23 -51.57 L 352.66 -51.57 L 352.66 -57.42 L 380.13 -57.42 L 380.13 -51.57 L 369.52 -51.57 L 369.52 0 L 363.23 0 L 363.23 -51.57 Z M 390.86 0 L 384.46 0 L 384.46 -57.42 L 397.23 -57.42 Q 403.87 -57.42 406.96 -54.11 Q 410.04 -50.81 410.04 -44.28 L 410.04 -44.28 L 410.04 -39.6 Q 410.04 -30.03 402.91 -27.79 L 402.91 -27.79 Q 406.72 -26.67 408.42 -23.64 Q 410.12 -20.62 410.12 -15.82 L 410.12 -15.82 L 410.12 -6.89 Q 410.12 -2.12 411.28 0 L 411.28 0 L 404.79 0 Q 403.71 -2.48 403.71 -6.97 L 403.71 -6.97 L 403.71 -15.98 Q 403.71 -20.66 401.63 -22.58 Q 399.55 -24.5 395.35 -24.5 L 395.35 -24.5 L 390.86 -24.5 L 390.86 0 Z M 390.86 -51.57 L 390.86 -30.35 L 395.59 -30.35 Q 399.67 -30.35 401.69 -32.05 Q 403.71 -33.75 403.71 -38.2 L 403.71 -38.2 L 403.71 -43.72 Q 403.71 -47.69 402.13 -49.63 Q 400.55 -51.57 397.07 -51.57 L 397.07 -51.57 L 390.86 -51.57 Z M 420.97 0 L 415.08 0 L 426.06 -57.42 L 435.34 -57.42 L 446.32 0 L 439.95 0 L 437.71 -11.57 L 423.21 -11.57 L 420.97 0 Z M 430.34 -50.17 L 424.01 -17.06 L 436.83 -17.06 L 430.34 -50.17 Z M 450.76 -13.85 L 450.76 -13.85 L 450.76 -43.52 Q 450.76 -50.25 453.98 -54.11 Q 457.21 -57.98 463.61 -57.98 L 463.61 -57.98 Q 470.06 -57.98 473.32 -54.11 Q 476.58 -50.25 476.58 -43.52 L 476.58 -43.52 L 476.58 -38.36 L 470.5 -38.36 L 470.5 -43.88 Q 470.5 -52.17 463.77 -52.17 L 463.77 -52.17 Q 460.41 -52.17 458.73 -50.01 Q 457.05 -47.85 457.05 -43.88 L 457.05 -43.88 L 457.05 -13.53 Q 457.05 -9.57 458.73 -7.41 Q 460.41 -5.25 463.77 -5.25 L 463.77 -5.25 Q 470.5 -5.25 470.5 -13.53 L 470.5 -13.53 L 470.5 -20.98 L 476.58 -20.98 L 476.58 -13.85 Q 476.58 -7.13 473.32 -3.28 Q 470.06 0.56 463.61 0.56 L 463.61 0.56 Q 457.21 0.56 453.98 -3.28 Q 450.76 -7.13 450.76 -13.85 Z M 490.68 -51.57 L 480.11 -51.57 L 480.11 -57.42 L 507.58 -57.42 L 507.58 -51.57 L 496.96 -51.57 L 496.96 0 L 490.68 0 L 490.68 -51.57 Z M 518.31 0 L 511.9 0 L 511.9 -57.42 L 518.31 -57.42 L 518.31 0 Z M 524.35 -13.85 L 524.35 -13.85 L 524.35 -43.52 Q 524.35 -50.29 527.67 -54.13 Q 531 -57.98 537.44 -57.98 L 537.44 -57.98 Q 543.93 -57.98 547.29 -54.13 Q 550.66 -50.29 550.66 -43.52 L 550.66 -43.52 L 550.66 -13.85 Q 550.66 -7.17 547.29 -3.3 Q 543.93 0.56 537.44 0.56 L 537.44 0.56 Q 531.04 0.56 527.69 -3.3 Q 524.35 -7.17 524.35 -13.85 Z M 530.64 -43.88 L 530.64 -13.53 Q 530.64 -9.53 532.34 -7.39 Q 534.04 -5.25 537.44 -5.25 L 537.44 -5.25 Q 544.25 -5.25 544.25 -13.53 L 544.25 -13.53 L 544.25 -43.88 Q 544.25 -47.85 542.57 -50.01 Q 540.89 -52.17 537.44 -52.17 L 537.44 -52.17 Q 534.04 -52.17 532.34 -50.01 Q 530.64 -47.85 530.64 -43.88 L 530.64 -43.88 Z M 562.35 0 L 556.62 0 L 556.62 -57.42 L 564.75 -57.42 L 578 -15.9 L 578 -57.42 L 583.69 -57.42 L 583.69 0 L 577.04 0 L 562.35 -46.41 L 562.35 0 Z" stroke-linecap="round" />
</g>
<g transform="matrix(1.557932958113964 0 0 1.5579329581139647 266.2338134034801 512.012312418764)" id="logo-logo"  >
<g style=""  paint-order="stroke"   >
		<g transform="matrix(0.4 0 0 -0.4000000000000001 -65.11700000000008 0.10999999999989996)"  >
<path style="stroke: none; stroke-width: 1; stroke-dasharray: none; stroke-linecap: butt; stroke-dashoffset: 0; stroke-linejoin: miter; stroke-miterlimit: 10; fill: rgb(255,255,255); fill-rule: nonzero; opacity: 1;"  paint-order="stroke"  transform=" translate(-2777.315, -4404.950000000001)" d="m 2835.84 4651.92 v -493.94 h -117.05 v 493.94 h 117.05" stroke-linecap="round" />
</g>
		<g transform="matrix(0.4 0 0 -0.4000000000000001 28.683000000000106 0)"  >
<path style="stroke: none; stroke-width: 1; stroke-dasharray: none; stroke-linecap: butt; stroke-dashoffset: 0; stroke-linejoin: miter; stroke-miterlimit: 10; fill: rgb(255,255,255); fill-rule: nonzero; opacity: 1;"  paint-order="stroke"  transform=" translate(-3011.29, -4405.225)" d="M 3160.9 4652.47 L 2861.68 4405.23 L 3160.9 4157.98 Z" stroke-linecap="round" />
</g>
</g>
</g>
</svg>